<?xml version="1.0" encoding="utf-8"?>
<!-- Generator: Adobe Illustrator 26.0.3, SVG Export Plug-In . SVG Version: 6.00 Build 0)  -->
<svg version="1.1" id="图层_1" xmlns="http://www.w3.org/2000/svg" xmlns:xlink="http://www.w3.org/1999/xlink" x="0px" y="0px"
	 viewBox="0 0 1920 1080" style="enable-background:new 0 0 1920 1080;" xml:space="preserve">
<g>
	<path d="M1339.58,537.72c8.76,72.08-14.09,130.58-76.55,169.89c-57.56,36.22-130.62,32.85-185.04-8.35
		c-53.4-40.43-73.16-95.45-64.44-162.36c3.45,3.25,5.91,6.16,9.37,7.77c1.14,0.53,0.94,1.61,0.81,2.71
		c-6,49.89,8.78,92.75,44.06,128.41c24.09,24.35,53.48,39.11,87.31,43.5c84.72,11.01,158.19-44.59,173.25-124.23
		c2.83-14.95,3.52-29.94,1.71-45.02c-0.41-3.43,0.16-5.88,3.54-7.49C1335.83,541.49,1337.31,539.32,1339.58,537.72z"/>
	<path d="M1113.19,589.92c9.93-17.83,27.77-26.61,39.24-42.09c8.74,22,25.69,36.41,42.43,50.98c5.25,4.57,10.27,9.34,15.1,14.37
		c11.72,12.21,13.88,26.93,12.1,42.81c-0.82,7.34-2.95,14.4-5.19,21.43c-3.8,11.91-12.16,17.91-24.16,19.88
		c-11,1.8-21.82,0.32-32.67-1.09c-0.92-0.12-2.32-0.08-2.4-1.46c-0.08-1.31,1.32-1.44,2.16-1.88c5.77-3,11.62-5.84,17.36-8.9
		c9.42-5.02,15.7-12.38,14.86-23.6c-0.87-11.65-6.87-19.89-18.33-23.6c-0.84-0.27-1.69-0.54-2.52-0.83
		c-9.17-3.22-11.4-7.23-9.41-16.91c0.8-3.9,1.57-7.8,2.39-11.7c3.98-18.96-15.02-31.13-30.25-25.65
		C1127.26,584.07,1120.79,586.88,1113.19,589.92z"/>
	<path d="M1106.57,613.28c-1.89-7.41,2.57-12.28,10.2-15.33c7.36-2.95,13.99-7.73,21.93-9.19c11.3-2.08,19.98,7.25,17.43,18.46
		c-1.3,5.73-3.11,11.33-3.26,17.33c-0.18,7.51,3.18,12.72,9.59,16.12c2.85,1.51,5.85,2.79,8.9,3.84c7.9,2.72,12.04,8.34,12.58,16.48
		c0.5,7.58-3.76,12.46-10.16,15.73c-7.49,3.83-15.06,7.51-22.53,11.39c-1.84,0.96-2.91,1.08-4.34-0.78
		c-9.99-13.01-20.4-25.72-30.11-38.94C1109.55,638.49,1106.62,626.93,1106.57,613.28z"/>
	<path d="M1196.97,481.51c1.72,16.31,3.22,31.43,4.93,46.53c1.72,15.21,7.74,28.08,20.88,36.86c3.37,2.25,4.7,4.97,3.21,9.05
		c-3.58,9.82-7.03,19.69-10.33,29.6c-0.95,2.86-1.73,2.25-3.41,0.64c-12.7-12.22-25.58-24.24-38.17-36.57
		c-10.04-9.83-15.17-22-15.7-36.04c-0.2-5.51,1.1-10.9,4.77-14.88C1173.98,504.99,1185.22,493.67,1196.97,481.51z"/>
	<path d="M1195.8,429.32c-14.32-14.52-28.22-27.65-40.87-41.95c-5.54-6.27-12.12-9.88-20.13-10.75c-3.8-0.41-3.51-1.73-2.56-4.47
		c2.15-6.2,6.53-10.21,12.39-12.5c24.54-9.58,48.83-7.92,72.8,2.14c4.2,1.77,7.12,4.92,8.7,9.48c1.16,3.37,0.1,4.38-2.99,5
		c-8.84,1.78-16.45,5.59-21.39,13.58c-5.03,8.14-5.33,17.35-5.91,26.46C1195.59,420.25,1195.8,424.21,1195.8,429.32z"/>
	<path d="M1317.84,493.81c-15.86,0-31.71-0.01-47.57,0.02c-1.91,0-3.88,0.06-5.72,0.5c-5.05,1.22-7.96,4.65-7.49,8.47
		c0.43,3.47,4.59,6.9,9.14,6.95c8.44,0.08,16.89-0.12,25.33-0.28c8.89-0.17,17.77-0.44,26.66-0.62c1.32-0.03,2.67,0.1,3.95,0.41
		c9.26,2.18,15.28,8.96,14.94,16.75c-0.34,7.98-7.11,14.54-16.42,15.88c-1.61,0.23-3.24,0.44-4.86,0.44
		c-25.04,0.01-50.08-0.01-75.13-0.02c-0.44,0-0.89-0.02-1.33-0.01c-3.15,0.06-6.01-0.93-5.97-4.42c0.04-3.49,2.84-4.23,6.05-4.22
		c24.15,0.07,48.31,0.05,72.46,0.02c2.8,0,5.61,0.18,8.4-0.51c5.11-1.26,8.17-4.31,7.92-8.13c-0.25-3.76-4.25-7.31-9.22-7.31
		c-11.11,0-22.21,0.39-33.32,0.61c-6.52,0.13-13.04,0.47-19.55,0.27c-12.16-0.37-20.57-11.05-17.01-21.51
		c2.21-6.5,7.45-9.71,13.79-11.21c2.56-0.61,5.28-0.76,7.93-0.77c31.86-0.05,63.72-0.03,95.58-0.03c0.59,0,1.19,0.01,1.78,0
		c3.17-0.02,6.03,1.25,5.98,4.51c-0.04,3.27-2.87,4.28-6.1,4.27C1351.33,493.76,1334.59,493.8,1317.84,493.81z"/>
	<path d="M1034.9,493.81c-16.3,0-32.6-0.01-48.89,0.01c-3.13,0.01-6.35-0.05-6.35-4.24c0-3.98,3.02-4.51,6.22-4.51
		c32.74,0.01,65.49-0.03,98.23,0.02c6.41,0.01,12.31,1.67,16.83,6.61c6.24,6.83,5.5,16.49-1.74,22.24
		c-4.06,3.23-8.74,4.83-13.96,4.71c-15.84-0.36-31.69-0.72-47.53-1.1c-3.77-0.09-7.38,0.21-10.26,3.13
		c-3.58,3.64-3.28,7.54,0.96,10.43c3.05,2.07,6.51,2.58,10.14,2.58c24.74-0.04,49.49-0.02,74.23-0.02c1.19,0,2.38-0.09,3.55,0.05
		c2.23,0.27,3.39,1.83,3.67,3.87c0.27,1.98-0.81,3.53-2.67,4.11c-1.52,0.47-3.19,0.62-4.79,0.62c-24.45,0.04-48.89,0.05-73.34-0.01
		c-2.95-0.01-5.97-0.2-8.82-0.86c-8.6-2.01-14.8-9.61-14.15-16.97c0.72-8.28,8.97-15.64,18.26-15.58c16.44,0.1,32.88,0.6,49.31,0.94
		c2.82,0.06,5.62,0.04,8.18-1.47c2.41-1.42,4.27-3.2,4.35-6.22c0.09-3.23-1.79-5.22-4.4-6.62c-2.37-1.28-4.93-1.78-7.67-1.77
		C1067.79,493.84,1051.34,493.81,1034.9,493.81z"/>
	<path d="M1160.22,507.96c0-3.92-0.08-6.96,0.01-9.99c0.89-27.93,1.81-55.86,2.72-83.8c0.04-1.33,0.07-2.67,0.22-3.99
		c0.11-1,0.09-2.2,1.25-2.64c1.3-0.5,1.78,0.65,2.41,1.44c7.9,9.95,16.29,19.53,23.4,30.08c9.02,13.38,8.7,25.77-1.32,38.32
		C1180.36,488.11,1170.13,497.29,1160.22,507.96z"/>
	<path d="M1230.27,661.67c0-5.93-0.04-11.06,0.01-16.19c0.09-8.05-0.81-15.88-4.57-23.18c-3.41-6.62-3.97-13.22-1.01-20.36
		c3.1-7.47,5.52-15.23,7.91-22.96c1.01-3.28,2.08-2.8,4.09-1c10.06,8.97,15.11,20.34,15.36,33.64
		C1252.44,631.28,1244.84,647.68,1230.27,661.67z"/>
	<path d="M1036.35,479.52c8.4-13.41,18.04-24.74,29.19-34.75c19.54-17.55,41.73-30.33,67.43-36.57c1-0.24,2.04-0.72,3.01-0.63
		c2.11,0.2,4.96-3.24,6.25,0.89c1.76,5.62,0.57,8.18-4.48,9.55c-16.39,4.44-31.73,11.15-45.93,20.48
		c-15,9.85-28.07,21.79-38.54,36.36c-2.67,3.71-5.45,5.36-9.88,4.73C1041.37,479.28,1039.27,479.52,1036.35,479.52z"/>
	<path d="M1316.22,479.5c-3.6,0-7.24-0.08-10.87,0.04c-1.83,0.06-2.56-1.12-3.44-2.31c-20.56-27.88-47.35-47.03-80.39-57.47
		c-5.95-1.88-6.6-3.16-6.27-8.82c0.19-3.31,1.4-3.84,4.49-3.05c15.54,4.02,30.12,10.25,43.74,18.66
		c20.81,12.84,38.05,29.43,51.53,49.87C1315.54,477.23,1316.46,477.91,1316.22,479.5z"/>
</g>
</svg>
